<svg xmlns="http://www.w3.org/2000/svg" viewBox="0 0 800 600">
  <rect width="800" height="600" fill="#FFF8F0"/>

  <!-- Stage/Platform -->
  <rect x="200" y="350" width="400" height="150" fill="#8B4513"/>
  <rect x="180" y="340" width="440" height="20" fill="#654321"/>

  <!-- Canopy -->
  <path d="M 150 340 Q 400 280 650 340" fill="#FF6B35" opacity="0.7"/>
  <path d="M 150 340 Q 400 290 650 340" fill="none" stroke="#8B4513" stroke-width="2"/>

  <!-- People silhouettes (audience) -->
  <ellipse cx="100" cy="520" rx="40" ry="60" fill="#2C1810" opacity="0.6"/>
  <circle cx="100" cy="480" r="25" fill="#2C1810" opacity="0.6"/>

  <ellipse cx="180" cy="530" rx="35" ry="55" fill="#2C1810" opacity="0.6"/>
  <circle cx="180" cy="495" r="22" fill="#2C1810" opacity="0.6"/>

  <ellipse cx="260" cy="525" rx="38" ry="58" fill="#2C1810" opacity="0.6"/>
  <circle cx="260" cy="488" r="24" fill="#2C1810" opacity="0.6"/>

  <ellipse cx="620" cy="520" rx="40" ry="60" fill="#2C1810" opacity="0.6"/>
  <circle cx="620" cy="480" r="25" fill="#2C1810" opacity="0.6"/>

  <ellipse cx="700" cy="530" rx="35" ry="55" fill="#2C1810" opacity="0.6"/>
  <circle cx="700" cy="495" r="22" fill="#2C1810" opacity="0.6"/>

  <!-- Pandit on stage -->
  <ellipse cx="400" cy="430" rx="45" ry="65" fill="#FF6B35"/>
  <circle cx="400" cy="385" r="30" fill="#8D6E63"/>

  <!-- Microphone -->
  <line x1="350" y1="400" x2="350" y2="450" stroke="#696969" stroke-width="3"/>
  <ellipse cx="350" cy="390" rx="12" ry="18" fill="#2F4F4F"/>

  <!-- Om symbol above -->
  <text x="400" y="150" font-family="serif" font-size="80" font-weight="bold" fill="#FF6B35" text-anchor="middle" opacity="0.5">ॐ</text>

  <!-- Decorative diyas -->
  <ellipse cx="220" cy="360" rx="15" ry="5" fill="#DAA520"/>
  <path d="M 220 360 L 220 350 L 225 345 L 220 340" stroke="#FFA500" stroke-width="2" fill="#FF4500"/>

  <ellipse cx="580" cy="360" rx="15" ry="5" fill="#DAA520"/>
  <path d="M 580 360 L 580 350 L 585 345 L 580 340" stroke="#FFA500" stroke-width="2" fill="#FF4500"/>

  <!-- Title -->
  <text x="400" y="80" font-family="serif" font-size="36" font-weight="bold" fill="#2C1810" text-anchor="middle">Spiritual Gathering</text>
</svg>
